<?xml version="1.0" encoding="utf-8"?>
<!-- Generator: Adobe Illustrator 26.0.3, SVG Export Plug-In . SVG Version: 6.00 Build 0)  -->
<svg version="1.1" id="Шар_1" xmlns="http://www.w3.org/2000/svg" xmlns:xlink="http://www.w3.org/1999/xlink" x="0px" y="0px"
	 viewBox="0 0 1200 1200" style="enable-background:new 0 0 1200 1200;" xml:space="preserve">
<style type="text/css">
	.st0{fill:url(#SVGID_1_);}
</style>
<g>
	
		<radialGradient id="SVGID_1_" cx="635.4134" cy="727.3818" r="557.2467" gradientTransform="matrix(0.7985 -0.4667 -0.461 -0.8083 451.3015 1505.1522)" gradientUnits="userSpaceOnUse">
		<stop  offset="0.1032" style="stop-color:#076D5B"/>
		<stop  offset="0.8325" style="stop-color:#17735B;stop-opacity:0.9"/>
	</radialGradient>
	<path class="st0" d="M1128.9,571.5c10.3,14.2,20.2,30,30,47.2c63.9,112,26,255.2-84.7,319.8s-183.6,10.6-247.5-101.4
		c-0.7-1.2-1.4-2.4-2-3.6c-16.6,19.8-36.9,37.1-60.5,50.9c-110.6,64.7-252.1,26.3-315.9-85.7C437.1,779,429,758.3,424,737.2
		c-0.3,0.2-0.7,0.4-0.9,0.5c-110.7,64.7-331,23.7-394.9-88.3s52.9-252.7,163.6-317.3c54.8-32.1,117.3-38.8,174.1-23.8
		c5.4-74.7,46.1-145.5,115-185.8C591.5,58,732.9,96.4,796.8,208.4c8.5,14.8,15.1,30.1,20,45.7c4.6-3.1,9.4-6.2,14.3-9
		c110.6-64.7,183.6-10.6,247.5,101.4C1121.9,422.5,1150,505.7,1128.9,571.5z"/>
</g>
</svg>
