<?xml version="1.0" encoding="utf-8"?>
<!-- Generator: Adobe Illustrator 26.0.3, SVG Export Plug-In . SVG Version: 6.00 Build 0)  -->
<svg version="1.1" id="Шар_1" xmlns="http://www.w3.org/2000/svg" xmlns:xlink="http://www.w3.org/1999/xlink" x="0px" y="0px"
	 viewBox="0 0 1200 1200" style="enable-background:new 0 0 1200 1200;" xml:space="preserve">
<style type="text/css">
	.st0{fill:#065244;}
	.st1{fill:url(#SVGID_1_);}
</style>
<g>
	<path class="st0" d="M1132.5,478.9c9.4,12.1,18.4,25.6,27.4,40.2c58.3,95.4,23.7,217.4-77.3,272.4s-167.5,9-225.8-86.4
		c-0.6-1-1.3-2-1.8-3.1c-15.1,16.9-33.7,31.6-55.2,43.4c-100.9,55.1-230,22.4-288.2-73c-10.2-16.8-17.6-34.4-22.2-52.4
		c-0.3,0.2-0.6,0.3-0.8,0.4c-101,55.1-302,20.2-360.3-75.2S176.4,330,277.4,274.9c50-27.3,107-33.1,158.9-20.3
		c4.9-63.6,42.1-123.9,104.9-158.3c100.9-54.9,229.9-22.2,288.2,73.2c7.8,12.6,13.8,25.6,18.2,38.9c4.2-2.6,8.6-5.3,13-7.7
		c100.9-55.1,167.5-9,225.8,86.4C1126.1,351.9,1151.7,422.8,1132.5,478.9z"/>
</g>
<g>
	
		<radialGradient id="SVGID_1_" cx="557.6063" cy="689.5981" r="557.2108" gradientTransform="matrix(0.7322 -0.3996 -0.4227 -0.6921 462.7487 1378.7789)" gradientUnits="userSpaceOnUse">
		<stop  offset="0.1032" style="stop-color:#076D5B"/>
		<stop  offset="0.8325" style="stop-color:#17735B;stop-opacity:0.9"/>
	</radialGradient>
	<path class="st1" d="M1043.1,636.6c9.4,12.2,18.5,25.7,27.5,40.4c58.6,95.9,23.8,218.5-77.7,273.8c-101.5,55.3-168.4,9.1-227-86.8
		c-0.6-1-1.3-2.1-1.8-3.1c-15.2,17-33.8,31.8-55.5,43.6c-101.4,55.4-231.2,22.5-289.7-73.4c-10.3-16.9-17.7-34.6-22.3-52.7
		c-0.3,0.2-0.6,0.3-0.8,0.4c-101.5,55.4-303.5,20.3-362.1-75.6s48.5-216.4,150-271.7c50.3-27.5,107.6-33.2,159.7-20.4
		c5-64,42.3-124.6,105.5-159.1c101.4-55.2,231.1-22.3,289.7,73.6c7.8,12.7,13.8,25.8,18.3,39.1c4.2-2.7,8.6-5.3,13.1-7.7
		c101.4-55.4,168.4-9.1,227,86.8C1036.7,509,1062.5,580.3,1043.1,636.6z"/>
</g>
</svg>
