<?xml version="1.0" encoding="utf-8"?>
<!-- Generator: Adobe Illustrator 26.0.3, SVG Export Plug-In . SVG Version: 6.00 Build 0)  -->
<svg version="1.1" id="Шар_1" xmlns="http://www.w3.org/2000/svg" xmlns:xlink="http://www.w3.org/1999/xlink" x="0px" y="0px"
	 viewBox="0 0 1200 1200" style="enable-background:new 0 0 1200 1200;" xml:space="preserve">
<style type="text/css">
	.st0{fill:url(#SVGID_1_);}
	.st1{fill:url(#SVGID_00000181775295497373161900000017224151984294919564_);}
	.st2{fill:url(#SVGID_00000057830109964726935840000013887011986437515910_);}
	.st3{fill:url(#SVGID_00000142898429763582683640000007680262815720214417_);}
	.st4{fill:url(#SVGID_00000099637781225215699700000008613054282512471466_);}
	.st5{fill:url(#SVGID_00000087408971751936389050000001892898552914477460_);}
	.st6{fill:url(#SVGID_00000103947934819423022140000003569818072262733231_);}
	.st7{fill:url(#SVGID_00000146472127438517274410000009621300466647860413_);}
	.st8{fill:url(#SVGID_00000172436105811804720810000013487908117963866294_);}
	.st9{fill:url(#SVGID_00000176738597548806031470000010678352270259478417_);}
</style>
<radialGradient id="SVGID_1_" cx="419.0603" cy="875.4664" r="161.6148" gradientUnits="userSpaceOnUse">
	<stop  offset="0" style="stop-color:#FFFFFF"/>
	<stop  offset="1" style="stop-color:#000000"/>
</radialGradient>
<path class="st0" d="M574,707.5c0,0-21.2,232.3-70.6,289.1c-49.4,56.8-135.5,62.9-192.4,13.4c-56.8-49.4-62.9-135.5-13.5-192.4
	C347,760.8,574,707.5,574,707.5z"/>
<radialGradient id="SVGID_00000069377304860922821290000008163947136041665712_" cx="909.1428" cy="242.9347" r="161.6127" gradientUnits="userSpaceOnUse">
	<stop  offset="0" style="stop-color:#FFFFFF"/>
	<stop  offset="1" style="stop-color:#000000"/>
</radialGradient>
<path style="fill:url(#SVGID_00000069377304860922821290000008163947136041665712_);" d="M1064.1,74.9c0,0-21.2,232.3-70.6,289.1
	c-49.4,56.8-135.5,62.9-192.4,13.5c-56.8-49.4-62.9-135.5-13.5-192.4C837,128.3,1064.1,74.9,1064.1,74.9z"/>
<radialGradient id="SVGID_00000091708340433819126270000011520508916081012889_" cx="453.1503" cy="410.4764" r="161.6148" gradientUnits="userSpaceOnUse">
	<stop  offset="0" style="stop-color:#FFFFFF"/>
	<stop  offset="1" style="stop-color:#000000"/>
</radialGradient>
<path style="fill:url(#SVGID_00000091708340433819126270000011520508916081012889_);" d="M608.1,242.5c0,0-21.2,232.3-70.6,289.1
	c-49.4,56.8-135.5,62.9-192.4,13.5c-56.8-49.4-62.9-135.5-13.5-192.4C381,295.8,608.1,242.5,608.1,242.5z"/>
<radialGradient id="SVGID_00000131337522300615467520000009301308061678433929_" cx="908.5936" cy="707.7464" r="542.6038" gradientUnits="userSpaceOnUse">
	<stop  offset="5.113699e-02" style="stop-color:#002EFF"/>
	<stop  offset="0.2761" style="stop-color:#2960F8"/>
	<stop  offset="0.4494" style="stop-color:#437FF3"/>
	<stop  offset="0.5456" style="stop-color:#4D8BF1"/>
	<stop  offset="1" style="stop-color:#BDCCD4"/>
</radialGradient>
<path style="fill:url(#SVGID_00000131337522300615467520000009301308061678433929_);" d="M1063.6,539.7c0,0-21.2,232.3-70.6,289.1
	c-49.4,56.8-135.5,62.9-192.4,13.5c-56.8-49.4-62.9-135.5-13.4-192.4C836.5,593.1,1063.6,539.7,1063.6,539.7z"/>
<radialGradient id="SVGID_00000162347133389904500540000000089830059495239817_" cx="452.6772" cy="410.6516" r="542.6038" gradientUnits="userSpaceOnUse">
	<stop  offset="0" style="stop-color:#002EFF"/>
	<stop  offset="8.539534e-02" style="stop-color:#1B4FFA"/>
	<stop  offset="0.1866" style="stop-color:#3670F5"/>
	<stop  offset="0.2713" style="stop-color:#4784F2"/>
	<stop  offset="0.3285" style="stop-color:#4D8BF1"/>
	<stop  offset="1" style="stop-color:#BDCCD4"/>
</radialGradient>
<path style="fill:url(#SVGID_00000162347133389904500540000000089830059495239817_);" d="M607.6,242.6c0,0-21.2,232.3-70.6,289.1
	c-49.4,56.8-135.5,62.9-192.4,13.5c-56.8-49.4-62.9-135.5-13.4-192.4C380.6,296,607.6,242.6,607.6,242.6z"/>
<radialGradient id="SVGID_00000089550771004015580970000009167301875463179161_" cx="908.6772" cy="242.6515" r="542.6038" gradientUnits="userSpaceOnUse">
	<stop  offset="0" style="stop-color:#002EFF"/>
	<stop  offset="8.539534e-02" style="stop-color:#1B4FFA"/>
	<stop  offset="0.1866" style="stop-color:#3670F5"/>
	<stop  offset="0.2713" style="stop-color:#4784F2"/>
	<stop  offset="0.3285" style="stop-color:#4D8BF1"/>
	<stop  offset="1" style="stop-color:#BDCCD4"/>
</radialGradient>
<path style="fill:url(#SVGID_00000089550771004015580970000009167301875463179161_);" d="M1063.6,74.6c0,0-21.2,232.3-70.6,289.1
	c-49.4,56.8-135.5,62.9-192.4,13.5c-56.8-49.4-62.9-135.5-13.4-192.4C836.6,128,1063.6,74.6,1063.6,74.6z"/>
<radialGradient id="SVGID_00000153688351153476971080000003281124986300761767_" cx="418.6772" cy="875.6516" r="542.6038" gradientUnits="userSpaceOnUse">
	<stop  offset="0" style="stop-color:#002EFF"/>
	<stop  offset="8.539534e-02" style="stop-color:#1B4FFA"/>
	<stop  offset="0.1866" style="stop-color:#3670F5"/>
	<stop  offset="0.2713" style="stop-color:#4784F2"/>
	<stop  offset="0.3285" style="stop-color:#4D8BF1"/>
	<stop  offset="1" style="stop-color:#BDCCD4"/>
</radialGradient>
<path style="fill:url(#SVGID_00000153688351153476971080000003281124986300761767_);" d="M573.6,707.6c0,0-21.2,232.3-70.6,289.1
	c-49.4,56.8-135.5,62.9-192.4,13.5c-56.8-49.4-62.9-135.5-13.4-192.4C346.6,761,573.6,707.6,573.6,707.6z"/>
<radialGradient id="SVGID_00000050628226359263855880000014080597419147034559_" cx="452.7868" cy="410.6516" r="542.6038" gradientUnits="userSpaceOnUse">
	<stop  offset="5.113699e-02" style="stop-color:#002EFF"/>
	<stop  offset="0.2761" style="stop-color:#2960F8"/>
	<stop  offset="0.4494" style="stop-color:#437FF3"/>
	<stop  offset="0.5456" style="stop-color:#4D8BF1"/>
	<stop  offset="1" style="stop-color:#BDCCD4"/>
</radialGradient>
<path style="fill:url(#SVGID_00000050628226359263855880000014080597419147034559_);" d="M607.7,242.6c0,0-21.2,232.3-70.6,289.1
	c-49.4,56.8-135.5,62.9-192.4,13.5c-56.8-49.4-62.9-135.5-13.4-192.4C380.7,296,607.7,242.6,607.7,242.6z"/>
<radialGradient id="SVGID_00000152265578701084376740000001618293930584480911_" cx="908.7868" cy="242.6515" r="542.6038" gradientUnits="userSpaceOnUse">
	<stop  offset="5.113699e-02" style="stop-color:#002EFF"/>
	<stop  offset="0.2761" style="stop-color:#2960F8"/>
	<stop  offset="0.4494" style="stop-color:#437FF3"/>
	<stop  offset="0.5456" style="stop-color:#4D8BF1"/>
	<stop  offset="1" style="stop-color:#BDCCD4"/>
</radialGradient>
<path style="fill:url(#SVGID_00000152265578701084376740000001618293930584480911_);" d="M1063.7,74.6c0,0-21.2,232.3-70.6,289.1
	c-49.4,56.8-135.5,62.9-192.4,13.5c-56.8-49.4-62.9-135.5-13.4-192.4C836.7,128,1063.7,74.6,1063.7,74.6z"/>
<radialGradient id="SVGID_00000099629440102934002370000007940541825684793731_" cx="418.7868" cy="875.6516" r="542.6038" gradientUnits="userSpaceOnUse">
	<stop  offset="5.113699e-02" style="stop-color:#002EFF"/>
	<stop  offset="0.2761" style="stop-color:#2960F8"/>
	<stop  offset="0.4494" style="stop-color:#437FF3"/>
	<stop  offset="0.5456" style="stop-color:#4D8BF1"/>
	<stop  offset="1" style="stop-color:#BDCCD4"/>
</radialGradient>
<path style="fill:url(#SVGID_00000099629440102934002370000007940541825684793731_);" d="M573.7,707.6c0,0-21.2,232.3-70.6,289.1
	c-49.4,56.8-135.5,62.9-192.4,13.5c-56.8-49.4-62.9-135.5-13.4-192.4C346.7,761,573.7,707.6,573.7,707.6z"/>
</svg>
