<?xml version="1.0" encoding="utf-8"?>
<!-- Generator: Adobe Illustrator 26.0.3, SVG Export Plug-In . SVG Version: 6.00 Build 0)  -->
<svg version="1.1" id="Шар_1" xmlns="http://www.w3.org/2000/svg" xmlns:xlink="http://www.w3.org/1999/xlink" x="0px" y="0px"
	 viewBox="0 0 1200 1200" style="enable-background:new 0 0 1200 1200;" xml:space="preserve">
<style type="text/css">
	.st0{opacity:0.81;}
	.st1{fill:#065244;}
	.st2{opacity:0.84;}
	.st3{fill:url(#SVGID_1_);}
	.st4{fill:#E36647;stroke:#000000;stroke-miterlimit:10;}
	.st5{fill:url(#SVGID_00000116217768532889787900000002052411908142657946_);}
</style>
<g class="st0">
	<path class="st1" d="M1118,459.1c9.3,11.5,18.2,24.4,27,38.3c57.5,90.8,23.4,206.9-76.3,259.3s-165.3,8.6-222.9-82.2
		c-0.6-1-1.3-1.9-1.8-3c-14.9,16.1-33.3,30.1-54.5,41.3c-99.6,52.4-227,21.3-284.4-69.5c-10.1-16-17.4-32.7-21.9-49.9
		c-0.3,0.2-0.6,0.3-0.8,0.4c-99.7,52.4-298.1,19.2-355.6-71.6S174.3,317.4,274,265c49.3-26,105.6-31.5,156.8-19.3
		c4.8-60.5,41.6-117.9,103.5-150.7c99.6-52.3,226.9-21.1,284.4,69.7c7.7,12,13.6,24.4,18,37c4.1-2.5,8.5-5,12.8-7.3
		c99.6-52.4,165.3-8.6,222.9,82.2C1111.7,338.3,1136.9,405.8,1118,459.1z"/>
</g>
<g class="st2">
	
		<radialGradient id="SVGID_1_" cx="557.6667" cy="510.2521" r="557.2775" gradientTransform="matrix(0.7227 -0.3803 0.4172 0.6587 -43.6896 525.1592)" gradientUnits="userSpaceOnUse">
		<stop  offset="0.1032" style="stop-color:#076D5B"/>
		<stop  offset="0.8325" style="stop-color:#17735B;stop-opacity:0.9"/>
	</radialGradient>
	<path class="st3" d="M1029.7,609.2c9.3,11.6,18.3,24.5,27.1,38.5c57.8,91.3,23.5,208-76.7,260.6s-166.2,8.7-224-82.6
		c-0.6-1-1.3-2-1.8-3c-15,16.2-33.4,30.3-54.8,41.5c-100.1,52.7-228.2,21.4-285.9-69.9c-10.2-16.1-17.5-32.9-22-50.2
		c-0.3,0.2-0.6,0.3-0.8,0.4c-100.2,52.7-299.5,19.3-357.4-72s47.9-206,148-258.6c49.6-26.2,106.2-31.6,157.6-19.4
		c4.9-60.9,41.7-118.6,104.1-151.4c100.1-52.5,228.1-21.2,285.9,70c7.7,12.1,13.6,24.6,18.1,37.2c4.1-2.6,8.5-5,12.9-7.3
		c100.1-52.7,166.2-8.7,224,82.6C1023.4,487.8,1048.9,555.7,1029.7,609.2z"/>
</g>
<path class="st4" d="M185.3,1125.5"/>
<path class="st4" d="M383.9,895.7"/>
<linearGradient id="SVGID_00000047741813695397747870000013312662826674937777_" gradientUnits="userSpaceOnUse" x1="271.7326" y1="810.5868" x2="782.1949" y2="820.944">
	<stop  offset="4.330708e-02" style="stop-color:#FF7A2A"/>
	<stop  offset="0.3187" style="stop-color:#FF5A1C;stop-opacity:0.9409"/>
	<stop  offset="0.5091" style="stop-color:#FF4815;stop-opacity:0.9"/>
</linearGradient>
<polyline style="fill:url(#SVGID_00000047741813695397747870000013312662826674937777_);" points="455.6,552.4 234.3,828.5 
	388.7,795.5 243,1095.1 530.4,729.6 396.9,742.1 618.4,532.6 "/>
</svg>
