<?xml version="1.0" encoding="utf-8"?>
<!-- Generator: Adobe Illustrator 26.0.3, SVG Export Plug-In . SVG Version: 6.00 Build 0)  -->
<svg version="1.1" id="Шар_1" xmlns="http://www.w3.org/2000/svg" xmlns:xlink="http://www.w3.org/1999/xlink" x="0px" y="0px"
	 viewBox="0 0 1200 1200" style="enable-background:new 0 0 1200 1200;" xml:space="preserve">
<style type="text/css">
	.st0{fill:url(#SVGID_1_);}
	.st1{fill:url(#SVGID_00000013182769940783712580000011369805203589025430_);}
	.st2{fill:url(#SVGID_00000084526991045720758770000002770839901641602452_);}
	.st3{fill:url(#SVGID_00000000926092534451928410000015944801335631708842_);}
	.st4{fill:url(#SVGID_00000078044276203785671120000001561868419097453217_);}
	.st5{fill:url(#SVGID_00000153692229313085510380000012975791411941193130_);}
	.st6{fill:url(#SVGID_00000030449862922281867810000003939709399163906198_);}
	.st7{fill:url(#SVGID_00000140012936868357486810000006426224076972936358_);}
</style>
<radialGradient id="SVGID_1_" cx="315.1967" cy="593.3362" r="541.544" gradientTransform="matrix(0.1076 0.872 -0.7519 9.276238e-02 860.4006 129.923)" gradientUnits="userSpaceOnUse">
	<stop  offset="0.2394" style="stop-color:#86C6FF"/>
	<stop  offset="0.561" style="stop-color:#BDCCD4;stop-opacity:0.3"/>
</radialGradient>
<path class="st0" d="M590.8,579.4c0,0-180.2-23-228.2-60.8C315.4,469,304,432.3,335,378.1c31-54.1,95.1-67.4,143.2-29.5
	C526.3,386.4,590.8,579.4,590.8,579.4z"/>
<radialGradient id="SVGID_00000056415266748281210060000006567398090666112685_" cx="116.967" cy="260.4742" r="541.8965" gradientTransform="matrix(-0.8766 -5.905690e-02 5.091909e-02 -0.7558 840.1012 665.7016)" gradientUnits="userSpaceOnUse">
	<stop  offset="0.2394" style="stop-color:#86C6FF"/>
	<stop  offset="0.561" style="stop-color:#BDCCD4;stop-opacity:0.3"/>
</radialGradient>
<path style="fill:url(#SVGID_00000056415266748281210060000006567398090666112685_);" d="M606.5,579.4c0,0,56.6-172.6,102.8-212.6
	c57.6-37,95.8-41.3,143.1-0.6c47.3,40.7,48.2,106.1,2,146.2C808.2,552.4,606.5,579.4,606.5,579.4z"/>
<radialGradient id="SVGID_00000150792096940880350650000012528761166317200014_" cx="-40.5989" cy="544.9113" r="541.6132" gradientTransform="matrix(-8.530217e-02 -0.8745 0.754 -7.354783e-02 331.7024 744.0441)" gradientUnits="userSpaceOnUse">
	<stop  offset="0.2394" style="stop-color:#86C6FF"/>
	<stop  offset="0.561" style="stop-color:#BDCCD4;stop-opacity:0.3"/>
</radialGradient>
<path style="fill:url(#SVGID_00000150792096940880350650000012528761166317200014_);" d="M606.5,616.3c0,0,179.5,27.6,226.6,66.6
	c45.9,50.8,56.4,87.7,24,141.1c-32.4,53.3-96.8,65-143.9,25.9C666.1,810.9,606.5,616.3,606.5,616.3z"/>
<radialGradient id="SVGID_00000021835298845228952420000011655389588432211610_" cx="149.8735" cy="670.4603" r="541.7424" gradientTransform="matrix(0.8749 8.140604e-02 -7.018860e-02 0.7543 365.6409 208.9023)" gradientUnits="userSpaceOnUse">
	<stop  offset="0.2394" style="stop-color:#86C6FF"/>
	<stop  offset="0.561" style="stop-color:#BDCCD4;stop-opacity:0.3"/>
</radialGradient>
<path style="fill:url(#SVGID_00000021835298845228952420000011655389588432211610_);" d="M597,613.1c0,0-61,171.1-108.2,209.9
	c-58.5,35.5-96.8,38.8-143.1-3.1c-46.2-41.9-45.5-107.3,1.8-146.2C394.7,634.9,597,613.1,597,613.1z"/>
<radialGradient id="SVGID_00000113350605367002048690000001939998967804300203_" cx="17.1875" cy="380.5634" r="541.6188" gradientTransform="matrix(-0.6192 0.6234 -0.5375 -0.5339 818.1887 428.0352)" gradientUnits="userSpaceOnUse">
	<stop  offset="0.2394" style="stop-color:#86C6FF"/>
	<stop  offset="0.561" style="stop-color:#BDCCD4;stop-opacity:0.3"/>
</radialGradient>
<path style="fill:url(#SVGID_00000113350605367002048690000001939998967804300203_);" d="M597.1,421.6c0,0-93.2-155.9-93.2-217
	c9.8-67.8,31.6-99.4,93.4-108.5c61.7-9,111.8,33.1,111.7,94.4C708.9,251.6,597.1,421.6,597.1,421.6z"/>
<radialGradient id="SVGID_00000039854058103192500010000006548842651311085499_" cx="32.0012" cy="-304.4475" r="541.6597" gradientTransform="matrix(-0.641 -0.6009 0.5181 -0.5527 1171.733 448.5757)" gradientUnits="userSpaceOnUse">
	<stop  offset="0.2394" style="stop-color:#86C6FF"/>
	<stop  offset="0.561" style="stop-color:#BDCCD4;stop-opacity:0.3"/>
</radialGradient>
<path style="fill:url(#SVGID_00000039854058103192500010000006548842651311085499_);" d="M807.4,597.1c0,0,153.1-97.7,214.2-99.4
	c68,7.9,100.3,28.7,111.1,90.2c10.8,61.4-29.9,112.7-91.1,114.4C980.6,704,807.4,597.1,807.4,597.1z"/>
<radialGradient id="SVGID_00000142169218692772321850000012994584640267047601_" cx="-234.0583" cy="674.8209" r="541.6288" gradientTransform="matrix(0.6223 -0.6203 0.5348 0.5365 371.238 441.4577)" gradientUnits="userSpaceOnUse">
	<stop  offset="0.2394" style="stop-color:#86C6FF"/>
	<stop  offset="0.561" style="stop-color:#BDCCD4;stop-opacity:0.3"/>
</radialGradient>
<path style="fill:url(#SVGID_00000142169218692772321850000012994584640267047601_);" d="M593.3,762.7c0,0,92.5,156.3,92.1,217.5
	c-10.2,67.7-32.1,99.2-93.9,108c-61.8,8.7-111.6-33.7-111.2-94.9C480.6,932.1,593.3,762.7,593.3,762.7z"/>
<radialGradient id="SVGID_00000150788040430224375140000002455581762131033514_" cx="278.2572" cy="-4.7084" r="541.9016" gradientTransform="matrix(0.638 0.6041 -0.5208 0.5501 17.7034 419.1588)" gradientUnits="userSpaceOnUse">
	<stop  offset="0.2394" style="stop-color:#86C6FF"/>
	<stop  offset="0.561" style="stop-color:#BDCCD4;stop-opacity:0.3"/>
</radialGradient>
<path style="fill:url(#SVGID_00000150788040430224375140000002455581762131033514_);" d="M383.8,586.1c0,0-153.6,96.9-214.7,98.4
	c-68-8.2-100.1-29.2-110.7-90.8C47.9,532.2,88.8,481.2,150,479.8C211.1,478.4,383.8,586.1,383.8,586.1z"/>
</svg>
