<?xml version="1.0" encoding="utf-8"?>
<!-- Generator: Adobe Illustrator 26.0.3, SVG Export Plug-In . SVG Version: 6.00 Build 0)  -->
<svg version="1.1" id="Шар_1" xmlns="http://www.w3.org/2000/svg" xmlns:xlink="http://www.w3.org/1999/xlink" x="0px" y="0px"
	 viewBox="0 0 1200 1200" style="enable-background:new 0 0 1200 1200;" xml:space="preserve">
<style type="text/css">
	.st0{opacity:0.65;}
	.st1{fill:#C9DCEA;}
	.st2{fill:#EEF4F9;}
</style>
<g class="st0">
	<path class="st1" d="M680.3,724.5c2.7,3.7,5.4,7.8,7.9,12.2c16.9,29,6.9,66.2-22.4,82.9s-48.6,2.7-65.6-26.3
		c-0.2-0.3-0.4-0.6-0.5-0.9c-4.4,5.1-9.8,9.6-16,13.2c-29.3,16.8-66.8,6.8-83.7-22.2c-3-5.1-5.1-10.5-6.4-15.9
		c-0.1,0.1-0.2,0.1-0.2,0.1c-29.3,16.8-87.7,6.1-104.6-22.9c-16.9-29,14-65.5,43.3-82.3c14.5-8.3,31.1-10.1,46.1-6.2
		c1.4-19.4,12.2-37.7,30.5-48.2c29.3-16.7,66.8-6.8,83.7,22.3c2.3,3.8,4,7.8,5.3,11.8c1.2-0.8,2.5-1.6,3.8-2.3
		c29.3-16.8,48.6-2.7,65.6,26.3C678.5,685.9,685.9,707.5,680.3,724.5z"/>
</g>
<g>
	<g>
		<g>
			<g class="st0">
				<path class="st2" d="M750.5,624.5c-22-37.8-47.2-56-85.3-34.2c-1.7,0.9-3.3,2-4.9,3c-1.7-5.3-4-10.4-6.9-15.4
					c-22-37.8-70.8-50.7-108.9-29c-23.7,13.6-37.8,37.5-39.6,62.7c-19.6-5.1-41.1-2.8-60,8c-38.2,21.8-78.4,69.2-56.4,107
					c22,37.8,98,51.6,136.1,29.8c0.1,0,0.2-0.1,0.3-0.2c1.7,7.1,4.5,14.1,8.4,20.7c22,37.8,70.8,50.7,108.9,28.9
					c8.1-4.7,15.1-10.5,20.9-17.2c0.2,0.4,0.4,0.8,0.7,1.2c22,37.8,47.2,56,85.3,34.2c38.2-21.8,51.2-70.1,29.2-107.9
					c-3.4-5.8-6.8-11.1-10.3-15.9C775.1,678.2,765.4,650.1,750.5,624.5z"/>
			</g>
		</g>
		<g>
			<g class="st0">
				<path class="st2" d="M788.2,822.6c-12.1-20.8-25.9-30.8-46.9-18.8c-0.9,0.5-1.8,1.1-2.7,1.7c-0.9-2.9-2.2-5.7-3.8-8.5
					c-12.1-20.8-38.9-27.9-59.9-15.9c-13.1,7.5-20.8,20.6-21.8,34.5c-10.8-2.8-22.6-1.5-33,4.4c-21,12-43.1,38.1-31,58.8
					s53.9,28.4,74.8,16.4c0,0,0.1-0.1,0.2-0.1c0.9,3.9,2.5,7.8,4.6,11.4c12.1,20.8,38.9,27.9,59.9,15.9c4.5-2.6,8.3-5.8,11.5-9.4
					c0.1,0.2,0.2,0.4,0.4,0.7c12.1,20.8,25.9,30.8,46.9,18.8c21-12,28.2-38.5,16.1-59.3c-1.9-3.2-3.7-6.1-5.7-8.8
					C801.7,852.1,796.4,836.7,788.2,822.6z"/>
			</g>
		</g>
		<g>
			<g class="st0">
				<path class="st2" d="M1032.9,526.1c-38-65.2-81.5-96.7-147.3-59.1c-2.9,1.6-5.8,3.4-8.5,5.2c-2.9-9.1-6.8-18-11.9-26.6
					c-38-65.2-122.2-87.6-188-50c-41,23.5-65.2,64.7-68.5,108.2c-33.8-8.7-71-4.8-103.6,13.9c-65.9,37.6-135.4,119.6-97.4,184.8
					s169.2,89.1,235.1,51.4c0.1-0.1,0.4-0.2,0.5-0.3c3,12.3,7.8,24.3,14.5,35.8c38,65.2,122.2,87.6,188,49.9c14-8,26.1-18.1,36-29.6
					c0.4,0.7,0.8,1.4,1.2,2.1c38,65.2,81.4,96.7,147.3,59.1c65.9-37.6,88.5-121,50.4-186.3c-5.8-10-11.7-19.2-17.9-27.5
					C1075.4,618.8,1058.6,570.4,1032.9,526.1z"/>
			</g>
		</g>
		<g>
			<g class="st0">
				<path class="st2" d="M1141.3,795.1c-35.3-60.6-75.7-89.8-136.8-54.8c-2.7,1.5-5.4,3.2-7.9,4.9c-2.7-8.4-6.4-16.7-11.1-24.7
					c-35.3-60.6-113.5-81.3-174.6-46.5c-38.1,21.8-60.6,60.1-63.6,100.5c-31.4-8.1-65.9-4.5-96.2,12.9
					c-61.2,34.9-125.7,111-90.4,171.6c35.3,60.6,157.1,82.7,218.2,47.8c0.1-0.1,0.3-0.2,0.5-0.3c2.8,11.4,7.2,22.6,13.4,33.3
					c35.3,60.6,113.5,81.3,174.6,46.3c13-7.5,24.3-16.8,33.4-27.5c0.3,0.6,0.7,1.3,1.1,1.9c35.3,60.6,75.6,89.8,136.8,54.8
					s82.1-112.4,46.8-172.9c-5.4-9.3-10.9-17.8-16.6-25.5C1180.7,881.2,1165.2,836.2,1141.3,795.1z"/>
			</g>
		</g>
		<g>
			<g class="st0">
				<path class="st2" d="M1134.4,733.6c-24.4-41.9-52.4-62.2-94.7-38c-1.9,1-3.7,2.2-5.5,3.4c-1.9-5.8-4.4-11.6-7.7-17.1
					c-24.4-41.9-78.5-56.3-120.9-32.2c-26.4,15.1-41.9,41.6-44,69.6c-21.7-5.6-45.6-3.1-66.6,8.9c-42.4,24.2-87,76.9-62.6,118.8
					c24.4,41.9,108.7,57.3,151.1,33.1c0.1,0,0.2-0.1,0.3-0.2c1.9,7.9,5,15.6,9.3,23c24.4,41.9,78.5,56.3,120.9,32.1
					c9-5.2,16.8-11.6,23.1-19.1c0.2,0.4,0.5,0.9,0.8,1.3c24.4,41.9,52.3,62.1,94.7,38s56.9-77.8,32.4-119.7
					c-3.7-6.4-7.5-12.4-11.5-17.7C1161.7,793.2,1151,762,1134.4,733.6z"/>
			</g>
		</g>
		<g>
			<g class="st0">
				<path class="st2" d="M1040.5,627.8c-17.7-30.4-37.9-45-68.6-27.5c-1.4,0.8-2.7,1.6-4,2.4c-1.4-4.2-3.2-8.4-5.5-12.4
					c-17.7-30.4-56.9-40.8-87.6-23.3c-19.1,10.9-30.4,30.1-31.9,50.4c-15.7-4.1-33.1-2.3-48.3,6.5c-30.7,17.5-63.1,55.7-45.3,86.1
					c17.7,30.4,78.8,41.5,109.5,23.9c0.1,0,0.2-0.1,0.2-0.1c1.4,5.7,3.6,11.3,6.7,16.7c17.7,30.4,56.9,40.8,87.6,23.2
					c6.5-3.7,12.2-8.4,16.8-13.8c0.2,0.3,0.4,0.7,0.6,1c17.7,30.4,37.9,45,68.6,27.5c30.7-17.5,41.2-56.4,23.5-86.7
					c-2.7-4.7-5.5-8.9-8.3-12.8C1060.3,670.9,1052.5,648.4,1040.5,627.8z"/>
			</g>
		</g>
		<g>
			<g class="st0">
				<path class="st2" d="M1004.6,477c-15.8-27-33.8-40.1-61.1-24.5c-1.2,0.7-2.4,1.4-3.5,2.2c-1.2-3.8-2.8-7.5-4.9-11
					c-15.8-27-50.7-36.3-78-20.7c-17,9.7-27,26.8-28.4,44.9c-14-3.6-29.4-2-43,5.7c-27.3,15.6-56.1,49.6-40.4,76.6
					c15.8,27,70.1,36.9,97.5,21.3c0,0,0.1-0.1,0.2-0.1c1.2,5.1,3.2,10.1,6,14.9c15.7,27,50.7,36.3,78,20.7
					c5.8-3.3,10.8-7.5,14.9-12.3c0.1,0.3,0.3,0.6,0.5,0.9c15.8,27,33.8,40.1,61.1,24.5c27.3-15.6,36.7-50.2,20.9-77.2
					c-2.4-4.2-4.9-8-7.4-11.4C1022.2,515.5,1015.2,495.4,1004.6,477z"/>
			</g>
		</g>
		<g>
			<g class="st0">
				<path class="st2" d="M1076.7,589.3c-41.9-71.9-89.8-106.6-162.4-65.1c-3.2,1.8-6.4,3.8-9.4,5.8c-3.2-10-7.5-19.8-13.1-29.3
					c-41.9-71.9-134.7-96.5-207.2-55.1c-45.2,25.9-71.9,71.3-75.4,119.3c-37.3-9.6-78.3-5.3-114.2,15.3
					c-72.6,41.5-149.2,131.8-107.3,203.7s186.4,98.2,259.1,56.7c0.1-0.1,0.4-0.2,0.6-0.3c3.3,13.5,8.6,26.8,15.9,39.5
					c41.9,71.9,134.7,96.5,207.2,55c15.5-8.9,28.8-20,39.7-32.7c0.4,0.8,0.9,1.5,1.3,2.3c41.9,71.9,89.7,106.6,162.4,65.1
					c72.6-41.5,97.5-133.4,55.6-205.3c-6.4-11-12.9-21.2-19.7-30.3C1123.5,691.5,1105.1,638.1,1076.7,589.3z"/>
			</g>
		</g>
		<g>
			<g class="st0">
				<path class="st2" d="M914.6,321c-23.3-40-49.9-59.3-90.3-36.2c-1.8,1-3.5,2.1-5.2,3.2c-1.8-5.6-4.2-11-7.3-16.3
					c-23.3-40-74.9-53.7-115.2-30.7c-25.1,14.4-40,39.6-41.9,66.3c-20.7-5.4-43.5-3-63.5,8.5c-40.4,23.1-83,73.3-59.7,113.2
					c23.3,40,103.6,54.6,144,31.5c0.1,0,0.2-0.1,0.3-0.2c1.8,7.5,4.8,14.9,8.9,21.9c23.3,40,74.9,53.7,115.2,30.6
					c8.6-4.9,16-11.1,22.1-18.2c0.2,0.4,0.5,0.9,0.7,1.3c23.3,40,49.9,59.2,90.3,36.2c40.4-23.1,54.2-74.1,30.9-114.1
					c-3.6-6.1-7.2-11.8-10.9-16.8C940.7,377.8,930.4,348.1,914.6,321z"/>
			</g>
		</g>
		<g>
			<g class="st0">
				<path class="st2" d="M860.3,290.6c-27.4-46.9-58.6-69.6-106-42.5c-2.1,1.2-4.2,2.5-6.1,3.8c-2.1-6.5-4.9-12.9-8.6-19.1
					c-27.4-46.9-87.9-63-135.2-36c-29.5,16.9-46.9,46.5-49.2,77.8c-24.3-6.3-51.1-3.5-74.5,10c-47.4,27.1-97.4,86-70,132.9
					s121.7,64.1,169.1,37c0.1,0,0.3-0.1,0.4-0.2c2.1,8.8,5.6,17.5,10.4,25.8c27.3,46.9,87.9,63,135.2,35.9
					c10.1-5.8,18.8-13,25.9-21.3c0.3,0.5,0.6,1,0.9,1.5c27.4,46.9,58.6,69.5,106,42.5s63.6-87,36.3-134c-4.2-7.2-8.4-13.8-12.8-19.8
					C890.9,357.3,878.8,322.5,860.3,290.6z"/>
			</g>
		</g>
		<g>
			<g class="st0">
				<path class="st2" d="M839.7,335.9c-37.1-63.6-79.4-94.3-143.6-57.6c-2.8,1.6-5.6,3.3-8.3,5.1c-2.8-8.9-6.7-17.5-11.6-25.9
					c-37.1-63.6-119.1-85.4-183.2-48.8c-40,22.9-63.6,63.1-66.7,105.5c-32.9-8.5-69.2-4.7-101,13.5c-64.2,36.7-132,116.5-94.9,180.1
					s164.9,86.8,229.1,50.1c0.1-0.1,0.3-0.2,0.5-0.3c2.9,12,7.6,23.7,14.1,34.9c37,63.6,119.1,85.4,183.2,48.6
					c13.7-7.8,25.5-17.7,35.1-28.9c0.3,0.7,0.8,1.4,1.2,2c37.1,63.6,79.4,94.2,143.6,57.6s86.2-117.9,49.1-181.5
					c-5.7-9.8-11.4-18.7-17.4-26.8C881.2,426.2,864.9,379,839.7,335.9z"/>
			</g>
		</g>
		<g>
			<g class="st0">
				<path class="st2" d="M622.4,520.3c-19.9-34.2-42.7-50.7-77.2-31c-1.5,0.9-3,1.8-4.5,2.7c-1.5-4.8-3.6-9.4-6.2-13.9
					c-19.9-34.2-64-45.9-98.5-26.2c-21.5,12.3-34.2,33.9-35.9,56.7c-17.7-4.6-37.2-2.5-54.3,7.3c-34.5,19.7-71,62.7-51,96.9
					s88.7,46.7,123.2,27c0.1,0,0.2-0.1,0.3-0.2c1.6,6.4,4.1,12.8,7.6,18.8c19.9,34.2,64,45.9,98.5,26.2c7.4-4.2,13.7-9.5,18.9-15.5
					c0.2,0.4,0.4,0.7,0.6,1.1c19.9,34.2,42.7,50.7,77.2,31c34.5-19.7,46.4-63.4,26.4-97.6c-3.1-5.3-6.1-10.1-9.4-14.4
					C644.6,568.9,635.9,543.5,622.4,520.3z"/>
			</g>
		</g>
		<g>
			<g class="st0">
				<path class="st2" d="M610.1,578.9c-28.8-49.4-61.7-73.2-111.5-44.7c-2.2,1.2-4.4,2.6-6.4,4c-2.2-6.9-5.2-13.6-9-20.2
					c-28.8-49.4-92.5-66.3-142.4-37.9c-31.1,17.8-49.4,49-51.8,81.9c-25.6-6.6-53.8-3.7-78.5,10.5C160.6,601,108,663.1,136.8,712.4
					s128.1,67.5,178,38.9c0.1,0,0.3-0.1,0.4-0.2c2.3,9.3,5.9,18.4,11,27.1c28.8,49.4,92.5,66.3,142.4,37.8
					c10.6-6.1,19.8-13.7,27.3-22.4c0.3,0.5,0.6,1.1,0.9,1.6c28.8,49.4,61.7,73.2,111.5,44.7c49.9-28.5,67-91.6,38.2-141
					c-4.4-7.6-8.9-14.6-13.5-20.8C642.3,649.1,629.6,612.4,610.1,578.9z"/>
			</g>
		</g>
		<g>
			<g class="st0">
				<path class="st2" d="M616.6,329.8c-37.9-64.9-81.1-96.3-146.6-58.8c-2.9,1.6-5.7,3.4-8.5,5.2c-2.9-9-6.8-17.9-11.8-26.5
					C411.8,184.9,328,162.6,262.5,200c-40.8,23.4-64.9,64.4-68.1,107.7c-33.6-8.7-70.7-4.8-103.1,13.8
					c-65.6,37.4-134.8,119-96.9,183.9s168.4,88.7,233.9,51.2c0.1-0.1,0.4-0.2,0.5-0.3c3,12.2,7.8,24.2,14.4,35.6
					c37.8,64.9,121.6,87.2,187.1,49.7c14-8,26-18,35.8-29.5c0.4,0.7,0.8,1.4,1.2,2.1c37.9,64.9,81,96.2,146.6,58.8
					c65.6-37.4,88-120.4,50.2-185.4c-5.8-10-11.7-19.1-17.8-27.4C658.9,422.1,642.2,373.9,616.6,329.8z"/>
			</g>
		</g>
	</g>
</g>
<g>
	<g>
		<g>
			<g class="st0">
				<path class="st2" d="M744,749c-24.6-42.2-52.7-62.5-95.2-38.2c-1.9,1.1-3.7,2.2-5.5,3.4c-1.9-5.9-4.4-11.6-7.7-17.2
					c-24.6-42.2-79-56.6-121.5-32.3c-26.5,15.2-42.2,41.8-44.2,69.9c-21.9-5.6-45.9-3.1-67,9c-42.6,24.3-87.5,77.3-62.9,119.4
					c24.6,42.2,109.3,57.6,151.9,33.2c0.1,0,0.2-0.1,0.3-0.2c1.9,7.9,5,15.7,9.3,23.2c24.5,42.2,79,56.6,121.5,32.3
					c9.1-5.2,16.9-11.7,23.3-19.2c0.2,0.5,0.5,0.9,0.8,1.4c24.6,42.2,52.6,62.5,95.2,38.2c42.6-24.3,57.2-78.2,32.6-120.4
					c-3.8-6.5-7.6-12.4-11.5-17.8C771.5,808.9,760.7,777.6,744,749z"/>
			</g>
		</g>
		<g>
			<g class="st0">
				<path class="st2" d="M507.6,679.8c-20.5-35.2-44-52.2-79.6-31.9c-1.6,0.9-3.1,1.9-4.6,2.8c-1.6-4.9-3.7-9.7-6.4-14.4
					c-20.5-35.2-66-47.3-101.5-27c-22.1,12.7-35.2,34.9-37,58.4c-18.3-4.7-38.3-2.6-56,7.5c-35.6,20.3-73.1,64.6-52.6,99.8
					c20.5,35.2,91.4,48.1,126.9,27.8c0.1,0,0.2-0.1,0.3-0.2c1.6,6.6,4.2,13.1,7.8,19.3c20.5,35.2,66,47.3,101.5,27
					c7.6-4.3,14.1-9.8,19.4-16c0.2,0.4,0.4,0.8,0.6,1.1c20.5,35.2,44,52.2,79.6,31.9c35.6-20.3,47.8-65.4,27.2-100.6
					c-3.2-5.4-6.3-10.4-9.6-14.8C530.6,729.9,521.5,703.8,507.6,679.8z"/>
			</g>
		</g>
		<g>
			<g class="st0">
				<path class="st2" d="M563.2,838.7c-17.8-30.5-38.1-45.2-68.9-27.6c-1.4,0.8-2.7,1.6-4,2.5c-1.4-4.2-3.2-8.4-5.6-12.4
					c-17.8-30.5-57.1-41-87.9-23.4c-19.2,11-30.5,30.3-32,50.6c-15.8-4.1-33.2-2.3-48.4,6.5c-30.8,17.6-63.3,55.9-45.5,86.4
					s79.1,41.7,109.9,24c0.1,0,0.2-0.1,0.3-0.1c1.4,5.7,3.6,11.4,6.8,16.7c17.8,30.5,57.1,41,87.9,23.3c6.6-3.8,12.2-8.5,16.8-13.9
					c0.2,0.3,0.4,0.7,0.6,1c17.8,30.5,38.1,45.2,68.9,27.6c30.8-17.6,41.4-56.6,23.6-87.1c-2.7-4.7-5.5-9-8.3-12.9
					C583.1,882.1,575.2,859.4,563.2,838.7z"/>
			</g>
		</g>
		<g>
			<g class="st0">
				<path class="st2" d="M279,842.5c-14.2-24.4-30.5-36.2-55.1-22.1c-1.1,0.6-2.2,1.3-3.2,2c-1.1-3.4-2.6-6.7-4.5-10
					c-14.2-24.4-45.7-32.8-70.4-18.7c-15.3,8.8-24.4,24.2-25.6,40.5c-12.7-3.3-26.6-1.8-38.8,5.2c-24.7,14.1-50.7,44.7-36.4,69.2
					s63.3,33.3,88,19.2c0,0,0.1-0.1,0.2-0.1c1.1,4.6,2.9,9.1,5.4,13.4c14.2,24.4,45.7,32.8,70.4,18.7c5.3-3,9.8-6.8,13.5-11.1
					c0.1,0.3,0.3,0.5,0.4,0.8c14.2,24.4,30.5,36.2,55.1,22.1s33.1-45.3,18.9-69.7c-2.2-3.7-4.4-7.2-6.7-10.3
					C294.9,877.2,288.6,859.1,279,842.5z"/>
			</g>
		</g>
	</g>
</g>
<g>
	<g>
		<g>
			<g class="st0">
				<path class="st2" d="M1083.5,253.5c-24.1-41.3-51.5-61.2-93.2-37.4c-1.8,1-3.7,2.2-5.4,3.3c-1.8-5.7-4.3-11.4-7.5-16.8
					c-24.1-41.3-77.3-55.4-119-31.6c-25.9,14.8-41.3,40.9-43.3,68.5c-21.4-5.5-44.9-3.1-65.6,8.8c-41.7,23.8-85.7,75.6-61.6,116.9
					s107,56.4,148.7,32.5c0.1,0,0.2-0.1,0.3-0.2c1.9,7.8,4.9,15.4,9.2,22.7c24,41.3,77.3,55.4,119,31.6c8.9-5.1,16.5-11.5,22.8-18.8
					c0.2,0.4,0.5,0.9,0.8,1.3c24.1,41.3,51.5,61.2,93.2,37.4c41.7-23.8,56-76.6,31.9-117.8c-3.7-6.3-7.4-12.2-11.3-17.4
					C1110.4,312.2,1099.8,281.5,1083.5,253.5z"/>
			</g>
		</g>
	</g>
</g>
<g>
	<g>
		<g>
			<g class="st0">
				<path class="st2" d="M1336.4,346.2c-35.3-60.6-75.7-89.9-136.8-54.9c-2.7,1.5-5.4,3.2-7.9,4.9c-2.7-8.4-6.4-16.7-11.1-24.7
					c-35.3-60.6-113.5-81.4-174.6-46.5c-38.1,21.8-60.6,60.1-63.6,100.5c-31.4-8.1-66-4.5-96.3,12.9
					c-61.2,34.9-125.8,111.1-90.4,171.6c35.3,60.6,157.1,82.8,218.3,47.8c0.1-0.1,0.3-0.2,0.5-0.3c2.8,11.4,7.2,22.6,13.4,33.3
					c35.3,60.6,113.5,81.4,174.6,46.4c13-7.5,24.3-16.8,33.4-27.5c0.3,0.6,0.7,1.3,1.1,1.9c35.3,60.6,75.6,89.8,136.8,54.9
					c61.2-34.9,82.2-112.4,46.8-173c-5.4-9.3-10.9-17.9-16.6-25.5C1375.9,432.4,1360.4,387.3,1336.4,346.2z"/>
			</g>
		</g>
	</g>
</g>
<g>
	<g>
		<g>
			<g class="st0">
				<path class="st2" d="M633.7,257.5c-17.8-30.5-38.1-45.3-69-27.6c-1.4,0.8-2.7,1.6-4,2.5c-1.4-4.3-3.2-8.4-5.6-12.5
					c-17.8-30.5-57.2-41-88-23.4c-19.2,11-30.5,30.3-32,50.7c-15.8-4.1-33.2-2.3-48.5,6.5c-30.8,17.6-63.4,56-45.6,86.5
					s79.2,41.7,110,24.1c0.1,0,0.2-0.1,0.3-0.1c1.4,5.8,3.7,11.4,6.8,16.8c17.8,30.5,57.2,41,88,23.4c6.6-3.8,12.2-8.5,16.9-13.9
					c0.2,0.3,0.4,0.7,0.6,1c17.8,30.5,38.1,45.3,69,27.6s41.4-56.7,23.6-87.2c-2.7-4.7-5.5-9-8.4-12.9
					C653.6,300.9,645.8,278.3,633.7,257.5z"/>
			</g>
		</g>
	</g>
</g>
</svg>
