<?xml version="1.0" encoding="utf-8"?>
<!-- Generator: Adobe Illustrator 26.0.3, SVG Export Plug-In . SVG Version: 6.00 Build 0)  -->
<svg version="1.1" id="Шар_1" xmlns="http://www.w3.org/2000/svg" xmlns:xlink="http://www.w3.org/1999/xlink" x="0px" y="0px"
	 viewBox="0 0 1200 1200" style="enable-background:new 0 0 1200 1200;" xml:space="preserve">
<style type="text/css">
	.st0{fill:url(#XMLID_00000096029974542244558190000009908747449205037500_);}
	.st1{fill:url(#SVGID_1_);}
</style>
<radialGradient id="XMLID_00000159447235591040239790000002076187885383952559_" cx="861.4942" cy="346.1385" r="629.994" gradientTransform="matrix(0.8571 0 0 0.8571 118.4286 58.1942)" gradientUnits="userSpaceOnUse">
	<stop  offset="1.600000e-02" style="stop-color:#FF0200"/>
	<stop  offset="0.1806" style="stop-color:#FF3B00"/>
	<stop  offset="0.2471" style="stop-color:#FF5400"/>
	<stop  offset="0.3604" style="stop-color:#FF5700;stop-opacity:0.9487"/>
	<stop  offset="0.4289" style="stop-color:#FF5F00;stop-opacity:0.9177"/>
	<stop  offset="0.4854" style="stop-color:#FF6D00;stop-opacity:0.8921"/>
	<stop  offset="0.5354" style="stop-color:#FE8200;stop-opacity:0.8695"/>
	<stop  offset="0.5811" style="stop-color:#FE9C00;stop-opacity:0.8488"/>
	<stop  offset="0.6238" style="stop-color:#FEBC00;stop-opacity:0.8295"/>
	<stop  offset="0.6632" style="stop-color:#FDE200;stop-opacity:0.8117"/>
	<stop  offset="0.689" style="stop-color:#FDFF00;stop-opacity:0.8"/>
</radialGradient>
<path id="XMLID_00000124873358847753793950000017712473855984565131_" style="fill:url(#XMLID_00000159447235591040239790000002076187885383952559_);" d="
	M805.7,60.1c206.5-34.9,382.7,141.4,347.9,347.9c-19.3,114.1-129.2,224-243.3,243.3c-206.5,34.8-382.7-141.4-347.9-347.9
	C581.7,189.3,691.6,79.4,805.7,60.1z"/>
<g id="XMLID_00000093141769397132293070000003964344344364371134_">
	
		<radialGradient id="SVGID_1_" cx="612.2811" cy="483.0787" r="525.7251" gradientTransform="matrix(0.7268 -0.5546 -0.5262 -0.7661 439.8242 1381.6659)" gradientUnits="userSpaceOnUse">
		<stop  offset="0.1032" style="stop-color:#076D5B"/>
		<stop  offset="0.8325" style="stop-color:#17735B;stop-opacity:0.9"/>
	</radialGradient>
	<path class="st1" d="M1086.4,578.3c9.9,11.6,19.8,24.5,29.5,38.5c71.2,102.4,49.9,246.7-48.5,319.8c-94.2,69.9-165.5,25.3-234-74.4
		c-0.4-0.6-0.8-1.2-1.2-1.8c-0.5-0.7-1.4-0.7-1.9,0c-12.5,18.8-27.9,35.9-46.1,50.4c-96.9,77.3-236.4,53.5-305.3-52.1
		c-10.7-16.4-19-33.8-25.1-51.7c-0.3,0.2-0.5,0.4-0.8,0.6c-95.6,72.9-320.9,7.9-390.2-92.9c-69.2-100.8,43.9-199,139.5-272
		c47-35.9,103.2-48.6,156.4-40.4c0.7,0.1,1.3-0.5,1.3-1.2c-1.6-71.6,29.2-142.7,88.3-187.8c95.6-72.9,229.2-50.4,298.4,50.4
		c8.8,12.9,16.2,26.4,22.1,40.3c0.3,0.7,1.2,0.9,1.8,0.4c3.6-3.1,7.3-6.1,11.1-9.1c95.6-72.9,167.7-28.5,236.9,72.2
		c46.8,68.2,80.3,144.7,67.5,209.6C1086,577.6,1086.1,578,1086.4,578.3z"/>
</g>
</svg>
